# xmcd
# Copyright (C) 1995-1998 Ti Kan
#
# Track frame offsets:
#       150
#       15841
#       29653
#       51929
#       66928
#       86354
#       107087
#       117198
#       136900
#       150720
#       170585
#
# Disc length: 2502 seconds
#
# Revision: 0
# Processed by: cddbd v1.5.2PL0 Copyright (c) Steve Scherf et al.
# Submitted via: CD-Import v1.0
#
DISCID=8909c40b
DTITLE=Count Gabba - The Lady's Gone. The Song Remains.
DYEAR=1900
DGENRE=
TTITLE0=On The Sidetrack Of Love Again
TTITLE1=The Deeper We Fall
TTITLE2=December
TTITLE3=Out Of The Darkness
TTITLE4=Sweet Señorita
TTITLE5=Burn Bracelona
TTITLE6=Let Her Grow
TTITLE7=Eyes Like  Guns
TTITLE8=The Greatest Show Ever
TTITLE9=Headphones
TTITLE10=Hey Hey
EXTD=
EXTT0=
EXTT1=
EXTT2=
EXTT3=
EXTT4=
EXTT5=
EXTT6=
EXTT7=
EXTT8=
EXTT9=
EXTT10=
PLAYORDER=
